<svg width="24" height="24" viewBox="0 0 24 24" fill="none" xmlns="http://www.w3.org/2000/svg">
<rect width="24" height="24" rx="12" fill="black"/>
<path d="M12 6.75C12.0009 6.45002 11.9418 6.1529 11.8261 5.8761C11.7105 5.5993 11.5407 5.34842 11.3267 5.13821C11.1127 4.928 10.8588 4.7627 10.58 4.65205C10.3012 4.54139 10.003 4.48761 9.70312 4.49386C9.40321 4.50011 9.10758 4.56627 8.83361 4.68845C8.55964 4.81063 8.31286 4.98636 8.1078 5.2053C7.90274 5.42425 7.74353 5.68199 7.63954 5.96336C7.53555 6.24474 7.48887 6.54407 7.50225 6.84375C7.0614 6.9571 6.65213 7.16929 6.30543 7.46423C5.95872 7.75918 5.68368 8.12915 5.50114 8.54614C5.31859 8.96312 5.23332 9.41617 5.25179 9.87098C5.27027 10.3258 5.39199 10.7704 5.60775 11.1713C5.22839 11.4794 4.93007 11.8757 4.73876 12.3255C4.54744 12.7752 4.46892 13.2649 4.51003 13.752C4.55113 14.239 4.71061 14.7087 4.97461 15.12C5.2386 15.5314 5.5991 15.872 6.02475 16.1122C5.97219 16.5189 6.00356 16.9321 6.11692 17.3261C6.23028 17.7202 6.42322 18.0869 6.68384 18.4035C6.94446 18.7201 7.26721 18.9799 7.63217 19.1668C7.99712 19.3538 8.39654 19.4639 8.80573 19.4905C9.21493 19.5171 9.62523 19.4594 10.0113 19.3212C10.3974 19.183 10.751 18.9671 11.0503 18.6868C11.3497 18.4066 11.5884 18.0679 11.7517 17.6918C11.9151 17.3157 11.9996 16.9101 12 16.5V6.75Z" stroke="white" stroke-width="1.2" stroke-linecap="round" stroke-linejoin="round"/>
<path d="M9.75 12.75C10.3797 12.5285 10.9295 12.1252 11.33 11.5913C11.7305 11.0573 11.9637 10.4165 12 9.75" stroke="white" stroke-width="1.2" stroke-linecap="round" stroke-linejoin="round"/>
<path d="M7.50225 6.84375C7.51708 7.20655 7.6195 7.56037 7.80075 7.875" stroke="white" stroke-width="1.2" stroke-linecap="round" stroke-linejoin="round"/>
<path d="M5.60775 11.172C5.74495 11.0603 5.89178 10.9609 6.0465 10.875" stroke="white" stroke-width="1.2" stroke-linecap="round" stroke-linejoin="round"/>
<path d="M7.5 16.5C6.98312 16.5002 6.47495 16.3669 6.02475 16.113" stroke="white" stroke-width="1.2" stroke-linecap="round" stroke-linejoin="round"/>
<path d="M12 12.75H15" stroke="white" stroke-width="1.2" stroke-linecap="round" stroke-linejoin="round"/>
<path d="M12 16.5H16.5C16.8978 16.5 17.2794 16.658 17.5607 16.9393C17.842 17.2206 18 17.6022 18 18V18.75" stroke="white" stroke-width="1.2" stroke-linecap="round" stroke-linejoin="round"/>
<path d="M12 9H18" stroke="white" stroke-width="1.2" stroke-linecap="round" stroke-linejoin="round"/>
<path d="M15 9V6.75C15 6.35218 15.158 5.97064 15.4393 5.68934C15.7206 5.40804 16.1022 5.25 16.5 5.25" stroke="white" stroke-width="1.2" stroke-linecap="round" stroke-linejoin="round"/>
<path d="M15 13.125C15.2071 13.125 15.375 12.9571 15.375 12.75C15.375 12.5429 15.2071 12.375 15 12.375C14.7929 12.375 14.625 12.5429 14.625 12.75C14.625 12.9571 14.7929 13.125 15 13.125Z" stroke="white" stroke-width="1.2" stroke-linecap="round" stroke-linejoin="round"/>
<path d="M16.5 5.625C16.7071 5.625 16.875 5.45711 16.875 5.25C16.875 5.04289 16.7071 4.875 16.5 4.875C16.2929 4.875 16.125 5.04289 16.125 5.25C16.125 5.45711 16.2929 5.625 16.5 5.625Z" stroke="white" stroke-width="1.2" stroke-linecap="round" stroke-linejoin="round"/>
<path d="M18 19.125C18.2071 19.125 18.375 18.9571 18.375 18.75C18.375 18.5429 18.2071 18.375 18 18.375C17.7929 18.375 17.625 18.5429 17.625 18.75C17.625 18.9571 17.7929 19.125 18 19.125Z" stroke="white" stroke-width="1.2" stroke-linecap="round" stroke-linejoin="round"/>
<path d="M18 9.375C18.2071 9.375 18.375 9.20711 18.375 9C18.375 8.79289 18.2071 8.625 18 8.625C17.7929 8.625 17.625 8.79289 17.625 9C17.625 9.20711 17.7929 9.375 18 9.375Z" stroke="white" stroke-width="1.2" stroke-linecap="round" stroke-linejoin="round"/>
</svg>
