<?xml version="1.0" encoding="UTF-8"?>
<svg id="Layer_1" xmlns="http://www.w3.org/2000/svg" xmlns:xlink="http://www.w3.org/1999/xlink" version="1.1" viewBox="0 0 1200 630">
  <!-- Generator: Adobe Illustrator 29.5.1, SVG Export Plug-In . SVG Version: 2.1.0 Build 141)  -->
  <defs>
    <style>
      .st0 {
        fill: #40a9ff;
      }

      .st0, .st1 {
        font-family: HelveticaNeue-Medium, 'Helvetica Neue';
        font-size: 140px;
        font-weight: 500;
      }

      .st1 {
        fill: #0f172a;
      }

      .st2 {
        fill: url(#linear-gradient1);
      }

      .st3 {
        fill: #334155;
      }

      .st4 {
        fill: url(#linear-gradient);
      }

      .st5 {
        fill: #fff;
      }
    </style>
    <linearGradient id="linear-gradient" x1="86.75" y1="18.67" x2="1133.85" y2="623.22" gradientUnits="userSpaceOnUse">
      <stop offset="0" stop-color="#fff"/>
      <stop offset="1" stop-color="#c0eafe"/>
    </linearGradient>
    <linearGradient id="linear-gradient1" x1="302.16" y1="735.2" x2="303.5" y2="733.87" gradientTransform="translate(-90597 220660.95) scale(300 -300)" gradientUnits="userSpaceOnUse">
      <stop offset="0" stop-color="#007acc"/>
      <stop offset="1" stop-color="#0af"/>
    </linearGradient>
  </defs>
  <rect class="st4" width="1200" height="630"/>
  <path class="st2" d="M252.07,100h0c110.46,0,200,89.54,200,200h0c0,110.46-89.54,200-200,200h0c-110.46,0-200-89.54-200-200h0c0-110.46,89.54-200,200-200Z"/>
  <g>
    <path class="st5" d="M371.99,348.89c1.01,25.55-6.12,47.31-24.07,65.25-23.15,23.16-60.72,29.23-89.61,13.75-4.12-2.21-7.21-2.08-11.33-.12-47.35,22.6-102.12-3.07-113-52.85-1.2-5.47-1.91-11.03-1.88-16.67.07-18.76-.03-37.53,0-56.29.03-27.29,20.47-50.55,47.57-54.51,37.19-5.41,66.31,20,65.61,57.12-.35,18.97.04,37.96-.07,56.95-.04,7.59,2.57,14.24,6.71,21.8,4.95-6.95,6.96-13.95,7.01-21.47.13-19.63-.03-39.25-.03-58.88,0-26.64,16.09-47.75,41.83-54.61,33.83-9.03,70.76,14.12,71.19,53.29.17,15.53.07,31.07.07,47.23M302.32,275.87c-10.45,5.75-17.04,14.28-16.43,26.51.89,17.69.24,35.36.55,53.04.19,10.51-1.73,20.61-5.75,30.28-2.63,6.31-5.56,12.48-8.37,18.75,3.16,2.84,6.88,3.99,10.64,4.83,30.11,6.61,59.85-17.11,61.68-47.87,1.17-19.65-1.15-39.21.12-58.77,1.31-20.15-21.17-36.71-42.45-26.73M217.25,409.56c2.53-.49,5.11-.8,7.59-1.51,7.43-2.09,7.68-2.92,4.21-9.52-7.11-13.51-11.81-27.59-11.47-43.2.39-18.11.17-36.21-.01-54.32-.11-9.59-3.67-17.59-11.95-23.09-20.27-13.47-45.48-.31-46.69,25.13-1.07,22.16-.67,44.43,2.56,66.44,3.99,27.07,31.36,43.35,55.8,40.07h-.04Z"/>
    <path class="st5" d="M177.27,234.6c-17.44-6.73-27.07-22.93-24.17-40.07,2.95-17.47,16.88-30.75,33.81-31,14.51-.21,26.43,5.53,33.79,18.68,7.25,12.99,7.35,26.07-1.27,38.39-8.67,12.4-21,17.29-35.99,15.41-1.91-.24-3.79-.83-6.16-1.43h-.01Z"/>
    <path class="st5" d="M318.21,164c16.13,2.75,26.99,10.89,31.49,26.55,4.05,14.05.29,26-9.89,35.99-10.96,10.75-28.08,12.97-42.04,5.93-12.71-6.4-21.03-22.03-19.21-36.01,2.11-16.17,13.35-28.59,28.89-31.72,3.35-.68,6.72-1.72,10.76-.72h0Z"/>
  </g>
  <text class="st1" transform="translate(486.79 264.81)"><tspan x="0" y="0">Pairium</tspan></text>
  <g>
    <path class="st3" d="M501.99,322.35h18.9c3.04,0,5.52.44,7.44,1.32,1.92.88,3.4,1.98,4.44,3.3,1.04,1.32,1.75,2.76,2.13,4.32.38,1.56.57,3,.57,4.32s-.19,2.75-.57,4.29c-.38,1.54-1.09,2.97-2.13,4.29-1.04,1.32-2.52,2.41-4.44,3.27-1.92.86-4.4,1.29-7.44,1.29h-11.4v16.44h-7.5v-42.84ZM509.49,342.63h10.98c.84,0,1.7-.12,2.58-.36.88-.24,1.69-.63,2.43-1.17.74-.54,1.34-1.26,1.8-2.16.46-.9.69-2.03.69-3.39s-.2-2.56-.6-3.48c-.4-.92-.94-1.65-1.62-2.19-.68-.54-1.46-.91-2.34-1.11-.88-.2-1.82-.3-2.82-.3h-11.1v14.16Z"/>
    <path class="st3" d="M546.38,351.45c0,1.2.17,2.36.51,3.48.34,1.12.85,2.1,1.53,2.94.68.84,1.54,1.51,2.58,2.01,1.04.5,2.28.75,3.72.75,2,0,3.61-.43,4.83-1.29,1.22-.86,2.13-2.15,2.73-3.87h6.48c-.36,1.68-.98,3.18-1.86,4.5-.88,1.32-1.94,2.43-3.18,3.33-1.24.9-2.63,1.58-4.17,2.04-1.54.46-3.15.69-4.83.69-2.44,0-4.6-.4-6.48-1.2-1.88-.8-3.47-1.92-4.77-3.36-1.3-1.44-2.28-3.16-2.94-5.16-.66-2-.99-4.2-.99-6.6,0-2.2.35-4.29,1.05-6.27.7-1.98,1.7-3.72,3-5.22,1.3-1.5,2.87-2.69,4.71-3.57,1.84-.88,3.92-1.32,6.24-1.32,2.44,0,4.63.51,6.57,1.53,1.94,1.02,3.55,2.37,4.83,4.05,1.28,1.68,2.21,3.61,2.79,5.79.58,2.18.73,4.43.45,6.75h-22.8ZM562.34,346.95c-.08-1.08-.31-2.12-.69-3.12-.38-1-.9-1.87-1.56-2.61-.66-.74-1.46-1.34-2.4-1.8-.94-.46-1.99-.69-3.15-.69s-2.29.21-3.27.63c-.98.42-1.82,1-2.52,1.74-.7.74-1.26,1.61-1.68,2.61-.42,1-.65,2.08-.69,3.24h15.96Z"/>
    <path class="st3" d="M574.4,334.17h6.42v6h.12c.2-.84.59-1.66,1.17-2.46.58-.8,1.28-1.53,2.1-2.19.82-.66,1.73-1.19,2.73-1.59s2.02-.6,3.06-.6c.8,0,1.35.02,1.65.06.3.04.61.08.93.12v6.6c-.48-.08-.97-.15-1.47-.21-.5-.06-.99-.09-1.47-.09-1.16,0-2.25.23-3.27.69-1.02.46-1.91,1.14-2.67,2.04-.76.9-1.36,2.01-1.8,3.33s-.66,2.84-.66,4.56v14.76h-6.84v-31.02Z"/>
    <path class="st3" d="M600.68,355.23c.2,2,.96,3.4,2.28,4.2s2.9,1.2,4.74,1.2c.64,0,1.37-.05,2.19-.15.82-.1,1.59-.29,2.31-.57.72-.28,1.31-.69,1.77-1.23.46-.54.67-1.25.63-2.13-.04-.88-.36-1.6-.96-2.16-.6-.56-1.37-1.01-2.31-1.35-.94-.34-2.01-.63-3.21-.87-1.2-.24-2.42-.5-3.66-.78-1.28-.28-2.51-.62-3.69-1.02-1.18-.4-2.24-.94-3.18-1.62-.94-.68-1.69-1.55-2.25-2.61-.56-1.06-.84-2.37-.84-3.93,0-1.68.41-3.09,1.23-4.23.82-1.14,1.86-2.06,3.12-2.76,1.26-.7,2.66-1.19,4.2-1.47,1.54-.28,3.01-.42,4.41-.42,1.6,0,3.13.17,4.59.51,1.46.34,2.78.89,3.96,1.65,1.18.76,2.16,1.75,2.94,2.97.78,1.22,1.27,2.69,1.47,4.41h-7.14c-.32-1.64-1.07-2.74-2.25-3.3-1.18-.56-2.53-.84-4.05-.84-.48,0-1.05.04-1.71.12-.66.08-1.28.23-1.86.45-.58.22-1.07.54-1.47.96-.4.42-.6.97-.6,1.65,0,.84.29,1.52.87,2.04.58.52,1.34.95,2.28,1.29.94.34,2.01.63,3.21.87s2.44.5,3.72.78c1.24.28,2.46.62,3.66,1.02,1.2.4,2.27.94,3.21,1.62.94.68,1.7,1.54,2.28,2.58.58,1.04.87,2.32.87,3.84,0,1.84-.42,3.4-1.26,4.68-.84,1.28-1.93,2.32-3.27,3.12-1.34.8-2.83,1.38-4.47,1.74s-3.26.54-4.86.54c-1.96,0-3.77-.22-5.43-.66-1.66-.44-3.1-1.11-4.32-2.01-1.22-.9-2.18-2.02-2.88-3.36-.7-1.34-1.07-2.93-1.11-4.77h6.84Z"/>
    <path class="st3" d="M640.88,366.03c-2.48,0-4.69-.41-6.63-1.23-1.94-.82-3.58-1.95-4.92-3.39s-2.36-3.16-3.06-5.16c-.7-2-1.05-4.2-1.05-6.6s.35-4.54,1.05-6.54c.7-2,1.72-3.72,3.06-5.16s2.98-2.57,4.92-3.39c1.94-.82,4.15-1.23,6.63-1.23s4.69.41,6.63,1.23c1.94.82,3.58,1.95,4.92,3.39,1.34,1.44,2.36,3.16,3.06,5.16.7,2,1.05,4.18,1.05,6.54s-.35,4.6-1.05,6.6c-.7,2-1.72,3.72-3.06,5.16-1.34,1.44-2.98,2.57-4.92,3.39-1.94.82-4.15,1.23-6.63,1.23ZM640.88,360.63c1.52,0,2.84-.32,3.96-.96,1.12-.64,2.04-1.48,2.76-2.52s1.25-2.21,1.59-3.51.51-2.63.51-3.99-.17-2.64-.51-3.96c-.34-1.32-.87-2.49-1.59-3.51-.72-1.02-1.64-1.85-2.76-2.49-1.12-.64-2.44-.96-3.96-.96s-2.84.32-3.96.96c-1.12.64-2.04,1.47-2.76,2.49-.72,1.02-1.25,2.19-1.59,3.51-.34,1.32-.51,2.64-.51,3.96s.17,2.69.51,3.99.87,2.47,1.59,3.51c.72,1.04,1.64,1.88,2.76,2.52,1.12.64,2.44.96,3.96.96Z"/>
    <path class="st3" d="M662.24,334.17h6.48v4.56l.12.12c1.04-1.72,2.4-3.07,4.08-4.05,1.68-.98,3.54-1.47,5.58-1.47,3.4,0,6.08.88,8.04,2.64,1.96,1.76,2.94,4.4,2.94,7.92v21.3h-6.84v-19.5c-.08-2.44-.6-4.21-1.56-5.31-.96-1.1-2.46-1.65-4.5-1.65-1.16,0-2.2.21-3.12.63-.92.42-1.7,1-2.34,1.74-.64.74-1.14,1.61-1.5,2.61-.36,1-.54,2.06-.54,3.18v18.3h-6.84v-31.02Z"/>
    <path class="st3" d="M722.66,358.29c0,.84.11,1.44.33,1.8.22.36.65.54,1.29.54h.72c.28,0,.6-.04.96-.12v4.74c-.24.08-.55.17-.93.27-.38.1-.77.19-1.17.27-.4.08-.8.14-1.2.18-.4.04-.74.06-1.02.06-1.4,0-2.56-.28-3.48-.84-.92-.56-1.52-1.54-1.8-2.94-1.36,1.32-3.03,2.28-5.01,2.88-1.98.6-3.89.9-5.73.9-1.4,0-2.74-.19-4.02-.57s-2.41-.94-3.39-1.68c-.98-.74-1.76-1.68-2.34-2.82-.58-1.14-.87-2.47-.87-3.99,0-1.92.35-3.48,1.05-4.68.7-1.2,1.62-2.14,2.76-2.82,1.14-.68,2.42-1.17,3.84-1.47,1.42-.3,2.85-.53,4.29-.69,1.24-.24,2.42-.41,3.54-.51,1.12-.1,2.11-.27,2.97-.51.86-.24,1.54-.61,2.04-1.11.5-.5.75-1.25.75-2.25,0-.88-.21-1.6-.63-2.16-.42-.56-.94-.99-1.56-1.29s-1.31-.5-2.07-.6c-.76-.1-1.48-.15-2.16-.15-1.92,0-3.5.4-4.74,1.2-1.24.8-1.94,2.04-2.1,3.72h-6.84c.12-2,.6-3.66,1.44-4.98.84-1.32,1.91-2.38,3.21-3.18,1.3-.8,2.77-1.36,4.41-1.68,1.64-.32,3.32-.48,5.04-.48,1.52,0,3.02.16,4.5.48,1.48.32,2.81.84,3.99,1.56,1.18.72,2.13,1.65,2.85,2.79s1.08,2.53,1.08,4.17v15.96ZM715.82,349.65c-1.04.68-2.32,1.09-3.84,1.23-1.52.14-3.04.35-4.56.63-.72.12-1.42.29-2.1.51-.68.22-1.28.52-1.8.9-.52.38-.93.88-1.23,1.5-.3.62-.45,1.37-.45,2.25,0,.76.22,1.4.66,1.92.44.52.97.93,1.59,1.23s1.3.51,2.04.63,1.41.18,2.01.18c.76,0,1.58-.1,2.46-.3.88-.2,1.71-.54,2.49-1.02.78-.48,1.43-1.09,1.95-1.83.52-.74.78-1.65.78-2.73v-5.1Z"/>
    <path class="st3" d="M730.22,322.35h6.84v42.84h-6.84v-42.84Z"/>
    <path class="st3" d="M744.68,322.35h6.84v6.48h-6.84v-6.48ZM744.68,334.17h6.84v31.02h-6.84v-31.02Z"/>
    <path class="st3" d="M757.88,334.17h25.2v4.8l-17.76,20.82h18.66v5.4h-27.3v-4.8l17.16-20.82h-15.96v-5.4Z"/>
    <path class="st3" d="M789.14,322.35h6.84v6.48h-6.84v-6.48ZM789.14,334.17h6.84v31.02h-6.84v-31.02Z"/>
    <path class="st3" d="M803.42,334.17h6.48v4.56l.12.12c1.04-1.72,2.4-3.07,4.08-4.05,1.68-.98,3.54-1.47,5.58-1.47,3.4,0,6.08.88,8.04,2.64,1.96,1.76,2.94,4.4,2.94,7.92v21.3h-6.84v-19.5c-.08-2.44-.6-4.21-1.56-5.31-.96-1.1-2.46-1.65-4.5-1.65-1.16,0-2.2.21-3.12.63-.92.42-1.7,1-2.34,1.74-.64.74-1.14,1.61-1.5,2.61-.36,1-.54,2.06-.54,3.18v18.3h-6.84v-31.02Z"/>
    <path class="st3" d="M866.54,363.57c0,4.68-1.31,8.17-3.93,10.47-2.62,2.3-6.39,3.45-11.31,3.45-1.56,0-3.13-.16-4.71-.48-1.58-.32-3.02-.86-4.32-1.62-1.3-.76-2.39-1.76-3.27-3-.88-1.24-1.4-2.76-1.56-4.56h6.84c.2.96.54,1.74,1.02,2.34.48.6,1.05,1.07,1.71,1.41s1.39.56,2.19.66c.8.1,1.64.15,2.52.15,2.76,0,4.78-.68,6.06-2.04,1.28-1.36,1.92-3.32,1.92-5.88v-4.74h-.12c-.96,1.72-2.27,3.06-3.93,4.02s-3.45,1.44-5.37,1.44c-2.48,0-4.59-.43-6.33-1.29-1.74-.86-3.18-2.04-4.32-3.54s-1.97-3.23-2.49-5.19c-.52-1.96-.78-4.06-.78-6.3,0-2.08.32-4.06.96-5.94s1.56-3.53,2.76-4.95c1.2-1.42,2.67-2.55,4.41-3.39,1.74-.84,3.71-1.26,5.91-1.26,1.96,0,3.76.41,5.4,1.23,1.64.82,2.9,2.11,3.78,3.87h.12v-4.26h6.84v29.4ZM851.36,359.79c1.52,0,2.81-.31,3.87-.93s1.92-1.44,2.58-2.46c.66-1.02,1.14-2.18,1.44-3.48.3-1.3.45-2.61.45-3.93s-.16-2.6-.48-3.84c-.32-1.24-.81-2.34-1.47-3.3s-1.52-1.72-2.58-2.28c-1.06-.56-2.33-.84-3.81-.84s-2.8.32-3.84.96-1.88,1.47-2.52,2.49c-.64,1.02-1.1,2.18-1.38,3.48-.28,1.3-.42,2.59-.42,3.87s.16,2.53.48,3.75c.32,1.22.81,2.31,1.47,3.27.66.96,1.5,1.74,2.52,2.34,1.02.6,2.25.9,3.69.9Z"/>
    <path class="st3" d="M887,334.17h5.16v-9.3h6.84v9.3h6.18v5.1h-6.18v16.56c0,.72.03,1.34.09,1.86.06.52.2.96.42,1.32.22.36.55.63.99.81.44.18,1.04.27,1.8.27.48,0,.96,0,1.44-.03.48-.02.96-.09,1.44-.21v5.28c-.76.08-1.5.16-2.22.24-.72.08-1.46.12-2.22.12-1.8,0-3.25-.17-4.35-.51-1.1-.34-1.96-.84-2.58-1.5-.62-.66-1.04-1.49-1.26-2.49-.22-1-.35-2.14-.39-3.42v-18.3h-5.16v-5.1Z"/>
    <path class="st3" d="M910.1,322.35h6.84v15.9h.12c.84-1.4,2.09-2.57,3.75-3.51,1.66-.94,3.51-1.41,5.55-1.41,3.4,0,6.08.88,8.04,2.64,1.96,1.76,2.94,4.4,2.94,7.92v21.3h-6.84v-19.5c-.08-2.44-.6-4.21-1.56-5.31-.96-1.1-2.46-1.65-4.5-1.65-1.16,0-2.2.21-3.12.63-.92.42-1.7,1-2.34,1.74-.64.74-1.14,1.61-1.5,2.61-.36,1-.54,2.06-.54,3.18v18.3h-6.84v-42.84Z"/>
    <path class="st3" d="M949.88,351.45c0,1.2.17,2.36.51,3.48.34,1.12.85,2.1,1.53,2.94.68.84,1.54,1.51,2.58,2.01,1.04.5,2.28.75,3.72.75,2,0,3.61-.43,4.83-1.29,1.22-.86,2.13-2.15,2.73-3.87h6.48c-.36,1.68-.98,3.18-1.86,4.5-.88,1.32-1.94,2.43-3.18,3.33-1.24.9-2.63,1.58-4.17,2.04-1.54.46-3.15.69-4.83.69-2.44,0-4.6-.4-6.48-1.2-1.88-.8-3.47-1.92-4.77-3.36-1.3-1.44-2.28-3.16-2.94-5.16s-.99-4.2-.99-6.6c0-2.2.35-4.29,1.05-6.27.7-1.98,1.7-3.72,3-5.22,1.3-1.5,2.87-2.69,4.71-3.57,1.84-.88,3.92-1.32,6.24-1.32,2.44,0,4.63.51,6.57,1.53,1.94,1.02,3.55,2.37,4.83,4.05,1.28,1.68,2.21,3.61,2.79,5.79.58,2.18.73,4.43.45,6.75h-22.8ZM965.84,346.95c-.08-1.08-.31-2.12-.69-3.12-.38-1-.9-1.87-1.56-2.61-.66-.74-1.46-1.34-2.4-1.8-.94-.46-1.99-.69-3.15-.69s-2.29.21-3.27.63c-.98.42-1.82,1-2.52,1.74s-1.26,1.61-1.68,2.61c-.42,1-.65,2.08-.69,3.24h15.96Z"/>
    <path class="st3" d="M513.45,394.35h7.98l16.5,42.84h-8.04l-4.02-11.34h-17.1l-4.02,11.34h-7.74l16.44-42.84ZM510.81,420.15h13.08l-6.42-18.42h-.18l-6.48,18.42Z"/>
    <path class="st3" d="M569.72,435.57c0,4.68-1.31,8.17-3.93,10.47-2.62,2.3-6.39,3.45-11.31,3.45-1.56,0-3.13-.16-4.71-.48-1.58-.32-3.02-.86-4.32-1.62-1.3-.76-2.39-1.76-3.27-3-.88-1.24-1.4-2.76-1.56-4.56h6.84c.2.96.54,1.74,1.02,2.34.48.6,1.05,1.07,1.71,1.41s1.39.56,2.19.66c.8.1,1.64.15,2.52.15,2.76,0,4.78-.68,6.06-2.04,1.28-1.36,1.92-3.32,1.92-5.88v-4.74h-.12c-.96,1.72-2.27,3.06-3.93,4.02-1.66.96-3.45,1.44-5.37,1.44-2.48,0-4.59-.43-6.33-1.29-1.74-.86-3.18-2.04-4.32-3.54-1.14-1.5-1.97-3.23-2.49-5.19-.52-1.96-.78-4.06-.78-6.3,0-2.08.32-4.06.96-5.94.64-1.88,1.56-3.53,2.76-4.95,1.2-1.42,2.67-2.55,4.41-3.39,1.74-.84,3.71-1.26,5.91-1.26,1.96,0,3.76.41,5.4,1.23,1.64.82,2.9,2.11,3.78,3.87h.12v-4.26h6.84v29.4ZM554.54,431.79c1.52,0,2.81-.31,3.87-.93,1.06-.62,1.92-1.44,2.58-2.46.66-1.02,1.14-2.18,1.44-3.48.3-1.3.45-2.61.45-3.93s-.16-2.6-.48-3.84c-.32-1.24-.81-2.34-1.47-3.3-.66-.96-1.52-1.72-2.58-2.28-1.06-.56-2.33-.84-3.81-.84s-2.8.32-3.84.96c-1.04.64-1.88,1.47-2.52,2.49-.64,1.02-1.1,2.18-1.38,3.48-.28,1.3-.42,2.59-.42,3.87s.16,2.53.48,3.75c.32,1.22.81,2.31,1.47,3.27.66.96,1.5,1.74,2.52,2.34,1.02.6,2.25.9,3.69.9Z"/>
    <path class="st3" d="M581.96,423.45c0,1.2.17,2.36.51,3.48.34,1.12.85,2.1,1.53,2.94.68.84,1.54,1.51,2.58,2.01,1.04.5,2.28.75,3.72.75,2,0,3.61-.43,4.83-1.29,1.22-.86,2.13-2.15,2.73-3.87h6.48c-.36,1.68-.98,3.18-1.86,4.5-.88,1.32-1.94,2.43-3.18,3.33-1.24.9-2.63,1.58-4.17,2.04-1.54.46-3.15.69-4.83.69-2.44,0-4.6-.4-6.48-1.2-1.88-.8-3.47-1.92-4.77-3.36-1.3-1.44-2.28-3.16-2.94-5.16s-.99-4.2-.99-6.6c0-2.2.35-4.29,1.05-6.27.7-1.98,1.7-3.72,3-5.22,1.3-1.5,2.87-2.69,4.71-3.57,1.84-.88,3.92-1.32,6.24-1.32,2.44,0,4.63.51,6.57,1.53,1.94,1.02,3.55,2.37,4.83,4.05,1.28,1.68,2.21,3.61,2.79,5.79.58,2.18.73,4.43.45,6.75h-22.8ZM597.92,418.95c-.08-1.08-.31-2.12-.69-3.12-.38-1-.9-1.87-1.56-2.61-.66-.74-1.46-1.34-2.4-1.8-.94-.46-1.99-.69-3.15-.69s-2.29.21-3.27.63c-.98.42-1.82,1-2.52,1.74s-1.26,1.61-1.68,2.61c-.42,1-.65,2.08-.69,3.24h15.96Z"/>
    <path class="st3" d="M609.98,406.17h6.48v4.56l.12.12c1.04-1.72,2.4-3.07,4.08-4.05,1.68-.98,3.54-1.47,5.58-1.47,3.4,0,6.08.88,8.04,2.64,1.96,1.76,2.94,4.4,2.94,7.92v21.3h-6.84v-19.5c-.08-2.44-.6-4.21-1.56-5.31-.96-1.1-2.46-1.65-4.5-1.65-1.16,0-2.2.21-3.12.63-.92.42-1.7,1-2.34,1.74-.64.74-1.14,1.61-1.5,2.61-.36,1-.54,2.06-.54,3.18v18.3h-6.84v-31.02Z"/>
    <path class="st3" d="M641.3,406.17h5.16v-9.3h6.84v9.3h6.18v5.1h-6.18v16.56c0,.72.03,1.34.09,1.86.06.52.2.96.42,1.32.22.36.55.63.99.81.44.18,1.04.27,1.8.27.48,0,.96,0,1.44-.03.48-.02.96-.09,1.44-.21v5.28c-.76.08-1.5.16-2.22.24-.72.08-1.46.12-2.22.12-1.8,0-3.25-.17-4.35-.51-1.1-.34-1.96-.84-2.58-1.5-.62-.66-1.04-1.49-1.26-2.49-.22-1-.35-2.14-.39-3.42v-18.3h-5.16v-5.1Z"/>
    <path class="st3" d="M664.58,394.35h6.84v6.48h-6.84v-6.48ZM664.58,406.17h6.84v31.02h-6.84v-31.02Z"/>
    <path class="st3" d="M699.8,416.55c-.28-1.92-1.05-3.37-2.31-4.35-1.26-.98-2.85-1.47-4.77-1.47-.88,0-1.82.15-2.82.45-1,.3-1.92.86-2.76,1.68-.84.82-1.54,1.96-2.1,3.42-.56,1.46-.84,3.37-.84,5.73,0,1.28.15,2.56.45,3.84.3,1.28.78,2.42,1.44,3.42s1.51,1.81,2.55,2.43c1.04.62,2.3.93,3.78.93,2,0,3.65-.62,4.95-1.86,1.3-1.24,2.11-2.98,2.43-5.22h6.84c-.64,4.04-2.17,7.13-4.59,9.27-2.42,2.14-5.63,3.21-9.63,3.21-2.44,0-4.59-.41-6.45-1.23s-3.43-1.94-4.71-3.36c-1.28-1.42-2.25-3.11-2.91-5.07-.66-1.96-.99-4.08-.99-6.36s.32-4.5.96-6.54c.64-2.04,1.6-3.81,2.88-5.31,1.28-1.5,2.87-2.68,4.77-3.54,1.9-.86,4.13-1.29,6.69-1.29,1.8,0,3.51.23,5.13.69s3.06,1.15,4.32,2.07c1.26.92,2.29,2.08,3.09,3.48.8,1.4,1.28,3.06,1.44,4.98h-6.84Z"/>
    <path class="st3" d="M741.32,394.35h7.98l16.5,42.84h-8.04l-4.02-11.34h-17.1l-4.02,11.34h-7.74l16.44-42.84ZM738.68,420.15h13.08l-6.42-18.42h-.18l-6.48,18.42Z"/>
    <path class="st3" d="M797.6,435.57c0,4.68-1.31,8.17-3.93,10.47-2.62,2.3-6.39,3.45-11.31,3.45-1.56,0-3.13-.16-4.71-.48-1.58-.32-3.02-.86-4.32-1.62-1.3-.76-2.39-1.76-3.27-3-.88-1.24-1.4-2.76-1.56-4.56h6.84c.2.96.54,1.74,1.02,2.34.48.6,1.05,1.07,1.71,1.41s1.39.56,2.19.66c.8.1,1.64.15,2.52.15,2.76,0,4.78-.68,6.06-2.04,1.28-1.36,1.92-3.32,1.92-5.88v-4.74h-.12c-.96,1.72-2.27,3.06-3.93,4.02s-3.45,1.44-5.37,1.44c-2.48,0-4.59-.43-6.33-1.29-1.74-.86-3.18-2.04-4.32-3.54s-1.97-3.23-2.49-5.19c-.52-1.96-.78-4.06-.78-6.3,0-2.08.32-4.06.96-5.94s1.56-3.53,2.76-4.95c1.2-1.42,2.67-2.55,4.41-3.39,1.74-.84,3.71-1.26,5.91-1.26,1.96,0,3.76.41,5.4,1.23,1.64.82,2.9,2.11,3.78,3.87h.12v-4.26h6.84v29.4ZM782.42,431.79c1.52,0,2.81-.31,3.87-.93s1.92-1.44,2.58-2.46c.66-1.02,1.14-2.18,1.44-3.48.3-1.3.45-2.61.45-3.93s-.16-2.6-.48-3.84c-.32-1.24-.81-2.34-1.47-3.3s-1.52-1.72-2.58-2.28c-1.06-.56-2.33-.84-3.81-.84s-2.8.32-3.84.96-1.88,1.47-2.52,2.49c-.64,1.02-1.1,2.18-1.38,3.48-.28,1.3-.42,2.59-.42,3.87s.16,2.53.48,3.75c.32,1.22.81,2.31,1.47,3.27.66.96,1.5,1.74,2.52,2.34,1.02.6,2.25.9,3.69.9Z"/>
    <path class="st3" d="M809.84,423.45c0,1.2.17,2.36.51,3.48.34,1.12.85,2.1,1.53,2.94.68.84,1.54,1.51,2.58,2.01,1.04.5,2.28.75,3.72.75,2,0,3.61-.43,4.83-1.29,1.22-.86,2.13-2.15,2.73-3.87h6.48c-.36,1.68-.98,3.18-1.86,4.5-.88,1.32-1.94,2.43-3.18,3.33-1.24.9-2.63,1.58-4.17,2.04-1.54.46-3.15.69-4.83.69-2.44,0-4.6-.4-6.48-1.2-1.88-.8-3.47-1.92-4.77-3.36-1.3-1.44-2.28-3.16-2.94-5.16s-.99-4.2-.99-6.6c0-2.2.35-4.29,1.05-6.27.7-1.98,1.7-3.72,3-5.22,1.3-1.5,2.87-2.69,4.71-3.57,1.84-.88,3.92-1.32,6.24-1.32,2.44,0,4.63.51,6.57,1.53,1.94,1.02,3.55,2.37,4.83,4.05,1.28,1.68,2.21,3.61,2.79,5.79.58,2.18.73,4.43.45,6.75h-22.8ZM825.8,418.95c-.08-1.08-.31-2.12-.69-3.12-.38-1-.9-1.87-1.56-2.61-.66-.74-1.46-1.34-2.4-1.8-.94-.46-1.99-.69-3.15-.69s-2.29.21-3.27.63c-.98.42-1.82,1-2.52,1.74s-1.26,1.61-1.68,2.61c-.42,1-.65,2.08-.69,3.24h15.96Z"/>
  </g>
  <text class="st0" transform="translate(1006.49 264.81)"><tspan x="0" y="0">AI</tspan></text>
</svg>