<?xml version="1.0" encoding="UTF-8"?>
<svg id="Layer_1" xmlns="http://www.w3.org/2000/svg" version="1.1" viewBox="0 0 300 300">
  <!-- Generator: Adobe Illustrator 29.5.1, SVG Export Plug-In . SVG Version: 2.1.0 Build 141)  -->
  <defs>
    <style>
      .st0 {
        fill: #007fff;
      }

      .st1 {
        fill: #fff;
      }
    </style>
    <linearGradient id="blueGradient" x1="0%" y1="0%" x2="100%" y2="100%">
      <stop offset="0%" stop-color="#26251e" />
      <stop offset="100%" stop-color="#26251e" />
    </linearGradient>
  </defs>
  <rect fill="url(#blueGradient)" x="0" y="0" width="300" height="300" rx="150" ry="150"/>
  <g>
    <path class="st1" d="M239.94,186.67c.76,19.16-4.59,35.48-18.05,48.94-17.36,17.37-45.54,21.92-67.21,10.31-3.09-1.66-5.41-1.56-8.5-.09-35.51,16.95-76.59-2.3-84.75-39.64-.9-4.1-1.43-8.27-1.41-12.5.05-14.07-.02-28.15,0-42.22.02-20.47,15.35-37.91,35.68-40.88,27.89-4.06,49.73,15,49.21,42.84-.26,14.23.03,28.47-.05,42.71-.03,5.69,1.93,10.68,5.03,16.35,3.71-5.21,5.22-10.46,5.26-16.1.1-14.72-.02-29.44-.02-44.16,0-19.98,12.07-35.81,31.37-40.96,25.37-6.77,53.07,10.59,53.39,39.97.13,11.65.05,23.3.05,35.42M187.69,131.9c-7.84,4.31-12.78,10.71-12.32,19.88.67,13.27.18,26.52.41,39.78.14,7.88-1.3,15.46-4.31,22.71-1.97,4.73-4.17,9.36-6.28,14.06,2.37,2.13,5.16,2.99,7.98,3.62,22.58,4.96,44.89-12.83,46.26-35.9.88-14.74-.86-29.41.09-44.08.98-15.11-15.88-27.53-31.84-20.05M123.89,232.17c1.9-.37,3.83-.6,5.69-1.13,5.57-1.57,5.76-2.19,3.16-7.14-5.33-10.13-8.86-20.69-8.6-32.4.29-13.58.13-27.16-.01-40.74-.08-7.19-2.75-13.19-8.96-17.32-15.2-10.1-34.11-.23-35.02,18.85-.8,16.62-.5,33.32,1.92,49.83,2.99,20.3,23.52,32.51,41.85,30.05h-.02Z"/>
    <path class="st1" d="M93.9,100.95c-13.08-5.05-20.3-17.2-18.13-30.05,2.21-13.1,12.66-23.06,25.36-23.25,10.88-.16,19.82,4.15,25.34,14.01,5.44,9.74,5.51,19.55-.95,28.79-6.5,9.3-15.75,12.97-26.99,11.56-1.43-.18-2.84-.62-4.62-1.07h0Z"/>
    <path class="st1" d="M199.61,48c12.1,2.06,20.24,8.17,23.62,19.91,3.04,10.54.22,19.5-7.42,26.99-8.22,8.06-21.06,9.73-31.53,4.45-9.53-4.8-15.77-16.52-14.41-27.01,1.58-12.13,10.01-21.44,21.67-23.79,2.51-.51,5.04-1.29,8.07-.54h0Z"/>
  </g>
</svg>