<svg width="100" height="100" viewBox="0 0 100 100" fill="none" xmlns="http://www.w3.org/2000/svg">
<g clip-path="url(#clip0_3_8)">
<rect width="100" height="100" rx="12" fill="var(--logo-icon-bg,#f7f7f4)"/>
<path d="M54.1747 77.3878H45.4744C39.7926 77.3878 34.7263 76.2751 30.2756 74.0497C25.8485 71.8243 22.3565 68.6993 19.7997 64.6747C17.2666 60.6501 16 55.9508 16 50.5767C16 45.1553 17.2784 40.3968 19.8352 36.3011C22.392 32.2055 25.884 29.0213 30.3111 26.7486C34.7618 24.4759 39.7808 23.3395 45.3679 23.3395H54.2812C59.8684 23.3395 64.8636 24.464 69.267 26.7131C73.6705 28.9621 77.1387 32.1226 79.6719 36.1946C82.2287 40.2666 83.5071 45.0133 83.5071 50.4347C83.5071 55.8324 82.2524 60.5554 79.7429 64.6037C77.2334 68.6283 73.7652 71.7652 69.3381 74.0142C64.9347 76.2633 59.8802 77.3878 54.1747 77.3878ZM45.4744 67.5156H54.2102C57.9744 67.5156 61.2652 66.8291 64.0824 65.456C66.8996 64.0829 69.0895 62.1297 70.652 59.5966C72.2145 57.0398 72.9957 53.9858 72.9957 50.4347C72.9957 46.8362 72.2027 43.7467 70.6165 41.1662C69.0303 38.5857 66.8404 36.6089 64.0469 35.2358C61.2533 33.8627 58.0455 33.1761 54.4233 33.1761H45.3679C41.7221 33.1761 38.4787 33.8745 35.6378 35.2713C32.7969 36.6681 30.5715 38.6686 28.9616 41.2727C27.3755 43.8769 26.5824 46.9782 26.5824 50.5767C26.5824 54.1278 27.3755 57.17 28.9616 59.7031C30.5715 62.2126 32.7969 64.1421 35.6378 65.4915C38.4787 66.8409 41.7576 67.5156 45.4744 67.5156ZM51.2046 10C53.4137 10 55.2045 11.7909 55.2045 14V85.6597C55.2045 87.8689 53.4137 89.6597 51.2045 89.6597H48.6222C46.413 89.6597 44.6222 87.8689 44.6222 85.6597V14C44.6222 11.7909 46.413 10 48.6222 10H51.2046Z" fill="var(--logo-icon-fg, #26251e)"/>
</g>
<defs>
<clipPath id="clip0_3_8">
<rect width="100" height="100" fill="white"/>
</clipPath>
</defs>
</svg>
