<?xml version="1.0" encoding="UTF-8"?>
<svg id="Layer_1" xmlns="http://www.w3.org/2000/svg" version="1.1" viewBox="0 0 1200 630">
  <!-- Generator: Adobe Illustrator 30.0.0, SVG Export Plug-In . SVG Version: 2.1.1 Build 123)  -->
  <defs>
    <style>
      .st0, .st1 {
        fill: #26251e;
      }

      .st2, .st1 {
        isolation: isolate;
      }

      .st3 {
        fill: #f7f7f4;
      }

      .st1 {
        font-family: HelveticaNeue-Medium, 'Helvetica Neue';
        font-size: 140px;
        font-weight: 500;
      }

      .st4 {
        fill: #fff;
      }
    </style>
  </defs>
  <rect class="st3" y="0" width="1200" height="630"/>
  <path class="st0" d="M240.14,122.35h0c110.46,0,200,89.54,200,200h0c0,110.46-89.54,200-200,200h0c-110.46,0-200-89.54-200-200h0c0-110.46,89.54-200,200-200h0Z"/>
  <g>
    <path class="st4" d="M360.06,371.24c1.01,25.55-6.12,47.31-24.07,65.25-23.15,23.16-60.72,29.23-89.61,13.75-4.12-2.21-7.21-2.08-11.33-.12-47.35,22.6-102.12-3.07-113-52.85-1.2-5.47-1.91-11.03-1.88-16.67.07-18.76-.03-37.53,0-56.29.03-27.29,20.47-50.55,47.57-54.51,37.19-5.41,66.31,20,65.61,57.12-.35,18.97.04,37.96-.07,56.95-.04,7.59,2.57,14.24,6.71,21.8,4.95-6.95,6.96-13.95,7.01-21.47.13-19.63-.03-39.25-.03-58.88,0-26.64,16.09-47.75,41.83-54.61,33.83-9.03,70.76,14.12,71.19,53.29.17,15.53.07,31.07.07,47.23M290.39,298.22c-10.45,5.75-17.04,14.28-16.43,26.51.89,17.69.24,35.36.55,53.04.19,10.51-1.73,20.61-5.75,30.28-2.63,6.31-5.56,12.48-8.37,18.75,3.16,2.84,6.88,3.99,10.64,4.83,30.11,6.61,59.85-17.11,61.68-47.87,1.17-19.65-1.15-39.21.12-58.77,1.31-20.15-21.17-36.71-42.45-26.73M205.32,431.91c2.53-.49,5.11-.8,7.59-1.51,7.43-2.09,7.68-2.92,4.21-9.52-7.11-13.51-11.81-27.59-11.47-43.2.39-18.11.17-36.21,0-54.32-.11-9.59-3.67-17.59-11.95-23.09-20.27-13.47-45.48-.31-46.69,25.13-1.07,22.16-.67,44.43,2.56,66.44,3.99,27.07,31.36,43.35,55.8,40.07h-.05Z"/>
    <path class="st4" d="M165.34,256.95c-17.44-6.73-27.07-22.93-24.17-40.07,2.95-17.47,16.88-30.75,33.81-31,14.51-.21,26.43,5.53,33.79,18.68,7.25,12.99,7.35,26.07-1.27,38.39-8.67,12.4-21,17.29-35.99,15.41-1.91-.24-3.79-.83-6.16-1.43h0v.02h0Z"/>
    <path class="st4" d="M306.28,186.35c16.13,2.75,26.99,10.89,31.49,26.55,4.05,14.05.29,26-9.89,35.99-10.96,10.75-28.08,12.97-42.04,5.93-12.71-6.4-21.03-22.03-19.21-36.01,2.11-16.17,13.35-28.59,28.89-31.72,3.35-.68,6.72-1.72,10.76-.72h0v-.02h0Z"/>
  </g>
  <g class="st2">
    <g class="st2">
      <text class="st1" transform="translate(474.86 287.16)"><tspan x="0" y="0">Pairium</tspan></text>
    </g>
  </g>
  <g>
    <path class="st0" d="M490.06,344.7h18.9c3.04,0,5.52.44,7.44,1.32s3.4,1.98,4.44,3.3c1.04,1.32,1.75,2.76,2.13,4.32s.57,3,.57,4.32-.19,2.75-.57,4.29-1.09,2.97-2.13,4.29-2.52,2.41-4.44,3.27-4.4,1.29-7.44,1.29h-11.4v16.44h-7.5v-42.84h0ZM497.56,364.98h10.98c.84,0,1.7-.12,2.58-.36s1.69-.63,2.43-1.17,1.34-1.26,1.8-2.16c.46-.9.69-2.03.69-3.39s-.2-2.56-.6-3.48c-.4-.92-.94-1.65-1.62-2.19s-1.46-.91-2.34-1.11c-.88-.2-1.82-.3-2.82-.3h-11.1v14.16h0Z"/>
    <path class="st0" d="M534.45,373.8c0,1.2.17,2.36.51,3.48.34,1.12.85,2.1,1.53,2.94.68.84,1.54,1.51,2.58,2.01,1.04.5,2.28.75,3.72.75,2,0,3.61-.43,4.83-1.29,1.22-.86,2.13-2.15,2.73-3.87h6.48c-.36,1.68-.98,3.18-1.86,4.5s-1.94,2.43-3.18,3.33-2.63,1.58-4.17,2.04c-1.54.46-3.15.69-4.83.69-2.44,0-4.6-.4-6.48-1.2-1.88-.8-3.47-1.92-4.77-3.36-1.3-1.44-2.28-3.16-2.94-5.16s-.99-4.2-.99-6.6c0-2.2.35-4.29,1.05-6.27.7-1.98,1.7-3.72,3-5.22s2.87-2.69,4.71-3.57,3.92-1.32,6.24-1.32c2.44,0,4.63.51,6.57,1.53s3.55,2.37,4.83,4.05,2.21,3.61,2.79,5.79c.58,2.18.73,4.43.45,6.75h-22.8ZM550.41,369.3c-.08-1.08-.31-2.12-.69-3.12s-.9-1.87-1.56-2.61-1.46-1.34-2.4-1.8-1.99-.69-3.15-.69-2.29.21-3.27.63c-.98.42-1.82,1-2.52,1.74s-1.26,1.61-1.68,2.61-.65,2.08-.69,3.24h15.96Z"/>
    <path class="st0" d="M562.47,356.52h6.42v6h.12c.2-.84.59-1.66,1.17-2.46.58-.8,1.28-1.53,2.1-2.19.82-.66,1.73-1.19,2.73-1.59s2.02-.6,3.06-.6c.8,0,1.35.02,1.65.06.3.04.61.08.93.12v6.6c-.48-.08-.97-.15-1.47-.21s-.99-.09-1.47-.09c-1.16,0-2.25.23-3.27.69s-1.91,1.14-2.67,2.04-1.36,2.01-1.8,3.33-.66,2.84-.66,4.56v14.76h-6.84v-31.02h0Z"/>
    <path class="st0" d="M588.75,377.58c.2,2,.96,3.4,2.28,4.2s2.9,1.2,4.74,1.2c.64,0,1.37-.05,2.19-.15s1.59-.29,2.31-.57,1.31-.69,1.77-1.23.67-1.25.63-2.13-.36-1.6-.96-2.16c-.6-.56-1.37-1.01-2.31-1.35s-2.01-.63-3.21-.87-2.42-.5-3.66-.78c-1.28-.28-2.51-.62-3.69-1.02s-2.24-.94-3.18-1.62-1.69-1.55-2.25-2.61-.84-2.37-.84-3.93c0-1.68.41-3.09,1.23-4.23s1.86-2.06,3.12-2.76,2.66-1.19,4.2-1.47c1.54-.28,3.01-.42,4.41-.42,1.6,0,3.13.17,4.59.51s2.78.89,3.96,1.65c1.18.76,2.16,1.75,2.94,2.97s1.27,2.69,1.47,4.41h-7.14c-.32-1.64-1.07-2.74-2.25-3.3s-2.53-.84-4.05-.84c-.48,0-1.05.04-1.71.12-.66.08-1.28.23-1.86.45-.58.22-1.07.54-1.47.96-.4.42-.6.97-.6,1.65,0,.84.29,1.52.87,2.04.58.52,1.34.95,2.28,1.29s2.01.63,3.21.87,2.44.5,3.72.78c1.24.28,2.46.62,3.66,1.02,1.2.4,2.27.94,3.21,1.62s1.7,1.54,2.28,2.58c.58,1.04.87,2.32.87,3.84,0,1.84-.42,3.4-1.26,4.68s-1.93,2.32-3.27,3.12-2.83,1.38-4.47,1.74-3.26.54-4.86.54c-1.96,0-3.77-.22-5.43-.66s-3.1-1.11-4.32-2.01c-1.22-.9-2.18-2.02-2.88-3.36s-1.07-2.93-1.11-4.77h6.84,0Z"/>
    <path class="st0" d="M628.95,388.38c-2.48,0-4.69-.41-6.63-1.23s-3.58-1.95-4.92-3.39-2.36-3.16-3.06-5.16-1.05-4.2-1.05-6.6.35-4.54,1.05-6.54,1.72-3.72,3.06-5.16,2.98-2.57,4.92-3.39,4.15-1.23,6.63-1.23,4.69.41,6.63,1.23,3.58,1.95,4.92,3.39c1.34,1.44,2.36,3.16,3.06,5.16s1.05,4.18,1.05,6.54-.35,4.6-1.05,6.6-1.72,3.72-3.06,5.16-2.98,2.57-4.92,3.39-4.15,1.23-6.63,1.23ZM628.95,382.98c1.52,0,2.84-.32,3.96-.96,1.12-.64,2.04-1.48,2.76-2.52s1.25-2.21,1.59-3.51.51-2.63.51-3.99-.17-2.64-.51-3.96c-.34-1.32-.87-2.49-1.59-3.51-.72-1.02-1.64-1.85-2.76-2.49-1.12-.64-2.44-.96-3.96-.96s-2.84.32-3.96.96c-1.12.64-2.04,1.47-2.76,2.49-.72,1.02-1.25,2.19-1.59,3.51s-.51,2.64-.51,3.96.17,2.69.51,3.99.87,2.47,1.59,3.51c.72,1.04,1.64,1.88,2.76,2.52,1.12.64,2.44.96,3.96.96Z"/>
    <path class="st0" d="M650.31,356.52h6.48v4.56l.12.12c1.04-1.72,2.4-3.07,4.08-4.05,1.68-.98,3.54-1.47,5.58-1.47,3.4,0,6.08.88,8.04,2.64,1.96,1.76,2.94,4.4,2.94,7.92v21.3h-6.84v-19.5c-.08-2.44-.6-4.21-1.56-5.31s-2.46-1.65-4.5-1.65c-1.16,0-2.2.21-3.12.63s-1.7,1-2.34,1.74-1.14,1.61-1.5,2.61-.54,2.06-.54,3.18v18.3h-6.84v-31.02h0Z"/>
    <path class="st0" d="M710.73,380.64c0,.84.11,1.44.33,1.8.22.36.65.54,1.29.54h.72c.28,0,.6-.04.96-.12v4.74c-.24.08-.55.17-.93.27-.38.1-.77.19-1.17.27-.4.08-.8.14-1.2.18-.4.04-.74.06-1.02.06-1.4,0-2.56-.28-3.48-.84s-1.52-1.54-1.8-2.94c-1.36,1.32-3.03,2.28-5.01,2.88s-3.89.9-5.73.9c-1.4,0-2.74-.19-4.02-.57s-2.41-.94-3.39-1.68c-.98-.74-1.76-1.68-2.34-2.82s-.87-2.47-.87-3.99c0-1.92.35-3.48,1.05-4.68.7-1.2,1.62-2.14,2.76-2.82s2.42-1.17,3.84-1.47c1.42-.3,2.85-.53,4.29-.69,1.24-.24,2.42-.41,3.54-.51s2.11-.27,2.97-.51c.86-.24,1.54-.61,2.04-1.11s.75-1.25.75-2.25c0-.88-.21-1.6-.63-2.16s-.94-.99-1.56-1.29-1.31-.5-2.07-.6-1.48-.15-2.16-.15c-1.92,0-3.5.4-4.74,1.2-1.24.8-1.94,2.04-2.1,3.72h-6.84c.12-2,.6-3.66,1.44-4.98s1.91-2.38,3.21-3.18c1.3-.8,2.77-1.36,4.41-1.68,1.64-.32,3.32-.48,5.04-.48,1.52,0,3.02.16,4.5.48s2.81.84,3.99,1.56,2.13,1.65,2.85,2.79,1.08,2.53,1.08,4.17v15.96h0ZM703.89,372c-1.04.68-2.32,1.09-3.84,1.23s-3.04.35-4.56.63c-.72.12-1.42.29-2.1.51s-1.28.52-1.8.9c-.52.38-.93.88-1.23,1.5s-.45,1.37-.45,2.25c0,.76.22,1.4.66,1.92.44.52.97.93,1.59,1.23s1.3.51,2.04.63,1.41.18,2.01.18c.76,0,1.58-.1,2.46-.3.88-.2,1.71-.54,2.49-1.02.78-.48,1.43-1.09,1.95-1.83s.78-1.65.78-2.73v-5.1h0Z"/>
    <path class="st0" d="M718.29,344.7h6.84v42.84h-6.84v-42.84Z"/>
    <path class="st0" d="M732.75,344.7h6.84v6.48h-6.84v-6.48ZM732.75,356.52h6.84v31.02h-6.84v-31.02Z"/>
    <path class="st0" d="M745.95,356.52h25.2v4.8l-17.76,20.82h18.66v5.4h-27.3v-4.8l17.16-20.82h-15.96v-5.4h0Z"/>
    <path class="st0" d="M777.21,344.7h6.84v6.48h-6.84v-6.48ZM777.21,356.52h6.84v31.02h-6.84v-31.02Z"/>
    <path class="st0" d="M791.49,356.52h6.48v4.56l.12.12c1.04-1.72,2.4-3.07,4.08-4.05,1.68-.98,3.54-1.47,5.58-1.47,3.4,0,6.08.88,8.04,2.64,1.96,1.76,2.94,4.4,2.94,7.92v21.3h-6.84v-19.5c-.08-2.44-.6-4.21-1.56-5.31s-2.46-1.65-4.5-1.65c-1.16,0-2.2.21-3.12.63s-1.7,1-2.34,1.74-1.14,1.61-1.5,2.61-.54,2.06-.54,3.18v18.3h-6.84v-31.02h0Z"/>
    <path class="st0" d="M854.61,385.92c0,4.68-1.31,8.17-3.93,10.47s-6.39,3.45-11.31,3.45c-1.56,0-3.13-.16-4.71-.48s-3.02-.86-4.32-1.62-2.39-1.76-3.27-3-1.4-2.76-1.56-4.56h6.84c.2.96.54,1.74,1.02,2.34.48.6,1.05,1.07,1.71,1.41s1.39.56,2.19.66,1.64.15,2.52.15c2.76,0,4.78-.68,6.06-2.04,1.28-1.36,1.92-3.32,1.92-5.88v-4.74h-.12c-.96,1.72-2.27,3.06-3.93,4.02s-3.45,1.44-5.37,1.44c-2.48,0-4.59-.43-6.33-1.29-1.74-.86-3.18-2.04-4.32-3.54s-1.97-3.23-2.49-5.19-.78-4.06-.78-6.3c0-2.08.32-4.06.96-5.94s1.56-3.53,2.76-4.95,2.67-2.55,4.41-3.39c1.74-.84,3.71-1.26,5.91-1.26,1.96,0,3.76.41,5.4,1.23s2.9,2.11,3.78,3.87h.12v-4.26h6.84v29.4h0ZM839.43,382.14c1.52,0,2.81-.31,3.87-.93s1.92-1.44,2.58-2.46c.66-1.02,1.14-2.18,1.44-3.48.3-1.3.45-2.61.45-3.93s-.16-2.6-.48-3.84-.81-2.34-1.47-3.3-1.52-1.72-2.58-2.28-2.33-.84-3.81-.84-2.8.32-3.84.96-1.88,1.47-2.52,2.49-1.1,2.18-1.38,3.48c-.28,1.3-.42,2.59-.42,3.87s.16,2.53.48,3.75.81,2.31,1.47,3.27,1.5,1.74,2.52,2.34,2.25.9,3.69.9Z"/>
    <path class="st0" d="M875.07,356.52h5.16v-9.3h6.84v9.3h6.18v5.1h-6.18v16.56c0,.72.03,1.34.09,1.86s.2.96.42,1.32c.22.36.55.63.99.81s1.04.27,1.8.27c.48,0,.96,0,1.44-.03.48-.02.96-.09,1.44-.21v5.28c-.76.08-1.5.16-2.22.24s-1.46.12-2.22.12c-1.8,0-3.25-.17-4.35-.51s-1.96-.84-2.58-1.5-1.04-1.49-1.26-2.49c-.22-1-.35-2.14-.39-3.42v-18.3h-5.16v-5.1h0Z"/>
    <path class="st0" d="M898.17,344.7h6.84v15.9h.12c.84-1.4,2.09-2.57,3.75-3.51s3.51-1.41,5.55-1.41c3.4,0,6.08.88,8.04,2.64,1.96,1.76,2.94,4.4,2.94,7.92v21.3h-6.84v-19.5c-.08-2.44-.6-4.21-1.56-5.31s-2.46-1.65-4.5-1.65c-1.16,0-2.2.21-3.12.63s-1.7,1-2.34,1.74-1.14,1.61-1.5,2.61-.54,2.06-.54,3.18v18.3h-6.84v-42.84h0Z"/>
    <path class="st0" d="M937.95,373.8c0,1.2.17,2.36.51,3.48.34,1.12.85,2.1,1.53,2.94.68.84,1.54,1.51,2.58,2.01,1.04.5,2.28.75,3.72.75,2,0,3.61-.43,4.83-1.29,1.22-.86,2.13-2.15,2.73-3.87h6.48c-.36,1.68-.98,3.18-1.86,4.5s-1.94,2.43-3.18,3.33-2.63,1.58-4.17,2.04c-1.54.46-3.15.69-4.83.69-2.44,0-4.6-.4-6.48-1.2-1.88-.8-3.47-1.92-4.77-3.36-1.3-1.44-2.28-3.16-2.94-5.16s-.99-4.2-.99-6.6c0-2.2.35-4.29,1.05-6.27.7-1.98,1.7-3.72,3-5.22s2.87-2.69,4.71-3.57,3.92-1.32,6.24-1.32c2.44,0,4.63.51,6.57,1.53s3.55,2.37,4.83,4.05,2.21,3.61,2.79,5.79c.58,2.18.73,4.43.45,6.75h-22.8ZM953.91,369.3c-.08-1.08-.31-2.12-.69-3.12s-.9-1.87-1.56-2.61-1.46-1.34-2.4-1.8-1.99-.69-3.15-.69-2.29.21-3.27.63c-.98.42-1.82,1-2.52,1.74s-1.26,1.61-1.68,2.61-.65,2.08-.69,3.24h15.96Z"/>
    <path class="st0" d="M501.52,416.7h7.98l16.5,42.84h-8.04l-4.02-11.34h-17.1l-4.02,11.34h-7.74l16.44-42.84h0ZM498.88,442.5h13.08l-6.42-18.42h-.18l-6.48,18.42h0Z"/>
    <path class="st0" d="M557.79,457.92c0,4.68-1.31,8.17-3.93,10.47s-6.39,3.45-11.31,3.45c-1.56,0-3.13-.16-4.71-.48s-3.02-.86-4.32-1.62-2.39-1.76-3.27-3-1.4-2.76-1.56-4.56h6.84c.2.96.54,1.74,1.02,2.34.48.6,1.05,1.07,1.71,1.41s1.39.56,2.19.66,1.64.15,2.52.15c2.76,0,4.78-.68,6.06-2.04,1.28-1.36,1.92-3.32,1.92-5.88v-4.74h-.12c-.96,1.72-2.27,3.06-3.93,4.02s-3.45,1.44-5.37,1.44c-2.48,0-4.59-.43-6.33-1.29-1.74-.86-3.18-2.04-4.32-3.54s-1.97-3.23-2.49-5.19-.78-4.06-.78-6.3c0-2.08.32-4.06.96-5.94s1.56-3.53,2.76-4.95,2.67-2.55,4.41-3.39c1.74-.84,3.71-1.26,5.91-1.26,1.96,0,3.76.41,5.4,1.23s2.9,2.11,3.78,3.87h.12v-4.26h6.84v29.4h0ZM542.61,454.14c1.52,0,2.81-.31,3.87-.93s1.92-1.44,2.58-2.46c.66-1.02,1.14-2.18,1.44-3.48.3-1.3.45-2.61.45-3.93s-.16-2.6-.48-3.84-.81-2.34-1.47-3.3-1.52-1.72-2.58-2.28-2.33-.84-3.81-.84-2.8.32-3.84.96c-1.04.64-1.88,1.47-2.52,2.49s-1.1,2.18-1.38,3.48c-.28,1.3-.42,2.59-.42,3.87s.16,2.53.48,3.75.81,2.31,1.47,3.27,1.5,1.74,2.52,2.34,2.25.9,3.69.9Z"/>
    <path class="st0" d="M570.03,445.8c0,1.2.17,2.36.51,3.48.34,1.12.85,2.1,1.53,2.94.68.84,1.54,1.51,2.58,2.01,1.04.5,2.28.75,3.72.75,2,0,3.61-.43,4.83-1.29,1.22-.86,2.13-2.15,2.73-3.87h6.48c-.36,1.68-.98,3.18-1.86,4.5s-1.94,2.43-3.18,3.33-2.63,1.58-4.17,2.04c-1.54.46-3.15.69-4.83.69-2.44,0-4.6-.4-6.48-1.2-1.88-.8-3.47-1.92-4.77-3.36-1.3-1.44-2.28-3.16-2.94-5.16s-.99-4.2-.99-6.6c0-2.2.35-4.29,1.05-6.27.7-1.98,1.7-3.72,3-5.22s2.87-2.69,4.71-3.57,3.92-1.32,6.24-1.32c2.44,0,4.63.51,6.57,1.53s3.55,2.37,4.83,4.05,2.21,3.61,2.79,5.79c.58,2.18.73,4.43.45,6.75h-22.8ZM585.99,441.3c-.08-1.08-.31-2.12-.69-3.12s-.9-1.87-1.56-2.61-1.46-1.34-2.4-1.8-1.99-.69-3.15-.69-2.29.21-3.27.63c-.98.42-1.82,1-2.52,1.74s-1.26,1.61-1.68,2.61-.65,2.08-.69,3.24h15.96Z"/>
    <path class="st0" d="M598.05,428.52h6.48v4.56l.12.12c1.04-1.72,2.4-3.07,4.08-4.05,1.68-.98,3.54-1.47,5.58-1.47,3.4,0,6.08.88,8.04,2.64,1.96,1.76,2.94,4.4,2.94,7.92v21.3h-6.84v-19.5c-.08-2.44-.6-4.21-1.56-5.31s-2.46-1.65-4.5-1.65c-1.16,0-2.2.21-3.12.63s-1.7,1-2.34,1.74-1.14,1.61-1.5,2.61-.54,2.06-.54,3.18v18.3h-6.84v-31.02h0Z"/>
    <path class="st0" d="M629.37,428.52h5.16v-9.3h6.84v9.3h6.18v5.1h-6.18v16.56c0,.72.03,1.34.09,1.86s.2.96.42,1.32c.22.36.55.63.99.81s1.04.27,1.8.27c.48,0,.96,0,1.44-.03.48-.02.96-.09,1.44-.21v5.28c-.76.08-1.5.16-2.22.24s-1.46.12-2.22.12c-1.8,0-3.25-.17-4.35-.51s-1.96-.84-2.58-1.5-1.04-1.49-1.26-2.49c-.22-1-.35-2.14-.39-3.42v-18.3h-5.16v-5.1h0Z"/>
    <path class="st0" d="M652.65,416.7h6.84v6.48h-6.84v-6.48ZM652.65,428.52h6.84v31.02h-6.84v-31.02Z"/>
    <path class="st0" d="M687.87,438.9c-.28-1.92-1.05-3.37-2.31-4.35s-2.85-1.47-4.77-1.47c-.88,0-1.82.15-2.82.45-1,.3-1.92.86-2.76,1.68s-1.54,1.96-2.1,3.42c-.56,1.46-.84,3.37-.84,5.73,0,1.28.15,2.56.45,3.84s.78,2.42,1.44,3.42,1.51,1.81,2.55,2.43,2.3.93,3.78.93c2,0,3.65-.62,4.95-1.86s2.11-2.98,2.43-5.22h6.84c-.64,4.04-2.17,7.13-4.59,9.27-2.42,2.14-5.63,3.21-9.63,3.21-2.44,0-4.59-.41-6.45-1.23s-3.43-1.94-4.71-3.36c-1.28-1.42-2.25-3.11-2.91-5.07-.66-1.96-.99-4.08-.99-6.36s.32-4.5.96-6.54,1.6-3.81,2.88-5.31,2.87-2.68,4.77-3.54c1.9-.86,4.13-1.29,6.69-1.29,1.8,0,3.51.23,5.13.69s3.06,1.15,4.32,2.07,2.29,2.08,3.09,3.48c.8,1.4,1.28,3.06,1.44,4.98h-6.84Z"/>
    <path class="st0" d="M729.39,416.7h7.98l16.5,42.84h-8.04l-4.02-11.34h-17.1l-4.02,11.34h-7.74l16.44-42.84ZM726.75,442.5h13.08l-6.42-18.42h-.18l-6.48,18.42h0Z"/>
    <path class="st0" d="M785.67,457.92c0,4.68-1.31,8.17-3.93,10.47s-6.39,3.45-11.31,3.45c-1.56,0-3.13-.16-4.71-.48s-3.02-.86-4.32-1.62-2.39-1.76-3.27-3-1.4-2.76-1.56-4.56h6.84c.2.96.54,1.74,1.02,2.34.48.6,1.05,1.07,1.71,1.41s1.39.56,2.19.66,1.64.15,2.52.15c2.76,0,4.78-.68,6.06-2.04,1.28-1.36,1.92-3.32,1.92-5.88v-4.74h-.12c-.96,1.72-2.27,3.06-3.93,4.02s-3.45,1.44-5.37,1.44c-2.48,0-4.59-.43-6.33-1.29-1.74-.86-3.18-2.04-4.32-3.54s-1.97-3.23-2.49-5.19-.78-4.06-.78-6.3c0-2.08.32-4.06.96-5.94s1.56-3.53,2.76-4.95,2.67-2.55,4.41-3.39c1.74-.84,3.71-1.26,5.91-1.26,1.96,0,3.76.41,5.4,1.23s2.9,2.11,3.78,3.87h.12v-4.26h6.84v29.4h0ZM770.49,454.14c1.52,0,2.81-.31,3.87-.93s1.92-1.44,2.58-2.46c.66-1.02,1.14-2.18,1.44-3.48.3-1.3.45-2.61.45-3.93s-.16-2.6-.48-3.84-.81-2.34-1.47-3.3-1.52-1.72-2.58-2.28-2.33-.84-3.81-.84-2.8.32-3.84.96-1.88,1.47-2.52,2.49-1.1,2.18-1.38,3.48c-.28,1.3-.42,2.59-.42,3.87s.16,2.53.48,3.75.81,2.31,1.47,3.27,1.5,1.74,2.52,2.34,2.25.9,3.69.9Z"/>
    <path class="st0" d="M797.91,445.8c0,1.2.17,2.36.51,3.48.34,1.12.85,2.1,1.53,2.94.68.84,1.54,1.51,2.58,2.01,1.04.5,2.28.75,3.72.75,2,0,3.61-.43,4.83-1.29,1.22-.86,2.13-2.15,2.73-3.87h6.48c-.36,1.68-.98,3.18-1.86,4.5s-1.94,2.43-3.18,3.33-2.63,1.58-4.17,2.04c-1.54.46-3.15.69-4.83.69-2.44,0-4.6-.4-6.48-1.2-1.88-.8-3.47-1.92-4.77-3.36-1.3-1.44-2.28-3.16-2.94-5.16s-.99-4.2-.99-6.6c0-2.2.35-4.29,1.05-6.27.7-1.98,1.7-3.72,3-5.22s2.87-2.69,4.71-3.57,3.92-1.32,6.24-1.32c2.44,0,4.63.51,6.57,1.53s3.55,2.37,4.83,4.05,2.21,3.61,2.79,5.79c.58,2.18.73,4.43.45,6.75h-22.8ZM813.87,441.3c-.08-1.08-.31-2.12-.69-3.12s-.9-1.87-1.56-2.61-1.46-1.34-2.4-1.8-1.99-.69-3.15-.69-2.29.21-3.27.63c-.98.42-1.82,1-2.52,1.74s-1.26,1.61-1.68,2.61-.65,2.08-.69,3.24h15.96Z"/>
  </g>
  <g class="st2">
    <g class="st2">
      <text class="st1" transform="translate(994.56 287.16)"><tspan x="0" y="0">AI</tspan></text>
    </g>
  </g>
</svg>